<svg overflow="hidden" viewBox="0, 0, 96, 96" id="Icons_Gauge_M" xmlns="http://www.w3.org/2000/svg" xmlns:xlink="http://www.w3.org/1999/xlink" xmlns:xml="http://www.w3.org/XML/1998/namespace" version="1.1"><style>.iconFill{fill:#3FB950;}</style><g id="Icons"><path class="iconFill" d="M47 26.025 L47 33 L49 33 L49 26.021 C53.6569 26.1285 58.2607 27.0347 62.611 28.7 L60.081 34.6 L61.919 35.388 L64.462 29.454 C67.5104 30.7987 70.3842 32.5089 73.02 34.547 L74.57 33.223 C55.9389 18.5289 28.9235 21.7205 14.2294 40.3516 C8.24218 47.9429 4.99046 57.3318 5 67 L5 71 L7 71 L7 67 C6.99749 62.0051 7.91268 57.0522 9.7 52.388 L15.6 54.919 L16.388 53.081 L10.455 50.539 C12.3764 46.1821 15.0396 42.1919 18.326 38.746 L23.287 43.707 L24.701 42.293 L19.74 37.332 C23.1858 34.0456 27.1761 31.3824 31.533 29.461 L34.075 35.394 L35.913 34.606 L33.388 28.7 C37.7391 27.0371 42.3431 26.1323 47 26.025 z" /><path class="iconFill" d="M82.183 40.954 L80.87 42.521 C82.7255 45.0077 84.2928 47.6969 85.542 50.537 L79.606 53.081 L80.394 54.919 L86.307 52.385 C88.092 57.0507 89.0048 62.0045 89 67 L89 71 L91 71 L91 67 C91.0079 57.5842 87.9086 48.4289 82.183 40.954 z" /><path class="iconFill" d="M81.7 33.725 C81.3308 33.3588 80.7427 33.3367 80.347 33.674 L44.8 64.013 C44.6083 64.1411 44.4393 64.3003 44.3 64.484 C44.266 64.526 44.23 64.571 44.123 64.684 C42.417 66.7899 42.6915 69.8699 44.743 71.641 C45.6202 72.3722 46.7261 72.7724 47.868 72.772 C49.3278 72.7673 50.714 72.13 51.668 71.025 L81.768 35.075 C82.0989 34.6755 82.0694 34.0892 81.7 33.725 z M50.142 69.725 C49.1104 70.949 47.2907 71.1265 46.042 70.125 C44.8308 69.0914 44.6381 67.2916 45.603 66.025 C45.696 65.931 45.773 65.839 45.845 65.751 C45.863 65.729 45.879 65.708 45.896 65.688 C45.9419 65.6599 45.9857 65.6285 46.027 65.594 L72.483 43.018 C72.4869 43.0139 72.4934 43.0136 72.4975 43.0175 C72.5016 43.0214 72.5019 43.0279 72.498 43.032 z" /></g></svg>